<svg xmlns="http://www.w3.org/2000/svg" xmlns:xlink="http://www.w3.org/1999/xlink" version="1.1" x="0px" y="0px" viewBox="0 0 100 125" style="enable-background:new 0 0 100 100;" xml:space="preserve"><path d="M21,73h58v4c0,3.309-2.691,6-6,6H27c-3.309,0-6-2.691-6-6V73z M90,39c0,3.3-2.298,6.067-5.376,6.802L79,69H21l-5.624-23.198  C12.298,45.067,10,42.3,10,39c0-3.86,3.14-7,7-7s7,3.14,7,7c0,0.652-0.096,1.28-0.264,1.879l9.761,8.947l10.841-19.18  C42.894,29.198,42,27.201,42,25c0-4.411,3.589-8,8-8s8,3.589,8,8c0,2.201-0.894,4.198-2.338,5.645l10.841,19.18l9.761-8.947  C76.096,40.28,76,39.652,76,39c0-3.86,3.14-7,7-7S90,35.14,90,39z M20,39c0-1.654-1.346-3-3-3s-3,1.346-3,3s1.346,3,3,3  S20,40.654,20,39z M54,25c0-2.206-1.794-4-4-4s-4,1.794-4,4s1.794,4,4,4S54,27.206,54,25z M86,39c0-1.654-1.346-3-3-3s-3,1.346-3,3  s1.346,3,3,3S86,40.654,86,39z"/><text x="0" y="115" fill="#000000" font-size="5px" font-weight="bold" font-family="'Helvetica Neue', Helvetica, Arial-Unicode, Arial, Sans-serif">Created by Siti Hamidah</text><text x="0" y="120" fill="#000000" font-size="5px" font-weight="bold" font-family="'Helvetica Neue', Helvetica, Arial-Unicode, Arial, Sans-serif">from the Noun Project</text></svg>